<!-- <svg width="28" height="31" viewBox="0 0 28 31" fill="none" xmlns="http://www.w3.org/2000/svg">
<path d="M8.74735 6.95838C8.74657 6.12497 9.70577 5.65635 10.3627 6.1692L23.5698 16.4796C24.334 17.0761 23.8874 18.302 22.9186 18.2672L15.6697 18.0071C15.3363 17.9951 15.0189 18.1501 14.8235 18.4205L10.5733 24.2984C10.0053 25.084 8.7639 24.6828 8.76299 23.7134L8.74735 6.95838Z" fill="#518BE9"/>
<rect x="12.5673" y="17.643" width="4.41306" height="10.5423" rx="2" transform="rotate(-26.0377 12.5673 17.643)" fill="#518BE9"/>
</svg> -->

<svg width="23" height="24" viewBox="0 0 23 24" fill="none" xmlns="http://www.w3.org/2000/svg">
<path d="M6.87255 5.40837C6.87177 4.57495 7.83097 4.10634 8.48791 4.61919L18.1966 12.1985C18.9608 12.795 18.5142 14.0209 17.5454 13.9861L12.4993 13.805C12.1659 13.793 11.8485 13.9481 11.653 14.2184L8.6944 18.3102C8.12639 19.0958 6.88495 18.6947 6.88405 17.7252L6.87255 5.40837Z" fill="#518BE9"/>
<rect x="9.9176" y="13.5109" width="3.51838" height="8.405" rx="1.75919" transform="rotate(-26.0377 9.9176 13.5109)" fill="#518BE9"/>
</svg>