<!-- <svg width="26" height="25" viewBox="0 0 26 25" fill="none" xmlns="http://www.w3.org/2000/svg">
<path d="M19.7533 1.12387C20.1468 0.736336 20.78 0.741172 21.1675 1.13467L23.8356 3.84387C24.2232 4.23736 24.2183 4.87051 23.8248 5.25804L21.0922 7.94927L17.0207 3.81509L19.7533 1.12387Z" fill="#518BE9"/>
<rect x="16.0839" y="4.84268" width="5.80245" height="16.4403" transform="rotate(45.4377 16.0839 4.84268)" fill="#518BE9"/>
<path d="M2.7684 22.2529C2.63624 22.2708 2.52395 22.1568 2.54384 22.0249L3.21258 17.5899C3.23715 17.4269 3.43721 17.3619 3.55284 17.4794L7.32884 21.3135C7.44447 21.4309 7.37644 21.6299 7.21313 21.652L2.7684 22.2529Z" fill="#518BE9"/>
</svg> -->

<svg width="19" height="19" viewBox="0 0 19 19" fill="none" xmlns="http://www.w3.org/2000/svg">
<path d="M14.3537 1.64507C14.7472 1.25754 15.3803 1.26238 15.7678 1.65588L17.3256 3.23758C17.7131 3.63107 17.7083 4.26422 17.3148 4.65175L15.5217 6.41763L12.5606 3.41096L14.3537 1.64507Z" fill="#518BE9"/>
<rect x="11.8793" y="4.15833" width="4.21997" height="11.9566" transform="rotate(45.4377 11.8793 4.15833)" fill="#518BE9"/>
<path d="M2.26738 16.8106C2.13522 16.8284 2.02293 16.7144 2.04282 16.5826L2.50207 13.5369C2.52664 13.3739 2.72669 13.3089 2.84233 13.4263L5.43543 16.0594C5.55107 16.1768 5.48304 16.3758 5.31973 16.3979L2.26738 16.8106Z" fill="#518BE9"/>
</svg>