<svg width="24" height="22" viewBox="0 0 24 22" fill="none" xmlns="http://www.w3.org/2000/svg">
<rect x="0.985512" width="7.26005" height="1.36126" rx="0.68063" transform="matrix(0.723971 -0.68983 0.723971 0.68983 1.1762 20.1007)" fill="#518BE9" fill-opacity="0.6" stroke="#BABABA" stroke-width="1.36126"/>
<mask id="path-2-inside-1_118_16" fill="white">
<path fill-rule="evenodd" clip-rule="evenodd" d="M14.7081 16.0401C19.3566 16.0401 23.125 12.4494 23.125 8.02003C23.125 3.59069 19.3566 0 14.7081 0C10.0595 0 6.29114 3.59069 6.29114 8.02003C6.29114 12.4494 10.0595 16.0401 14.7081 16.0401ZM14.7079 14.1153C18.2408 14.1153 21.1048 11.3864 21.1048 8.02006C21.1048 4.65376 18.2408 1.92484 14.7079 1.92484C11.175 1.92484 8.31103 4.65376 8.31103 8.02006C8.31103 11.3864 11.175 14.1153 14.7079 14.1153Z"/>
</mask>
<path fill-rule="evenodd" clip-rule="evenodd" d="M14.7081 16.0401C19.3566 16.0401 23.125 12.4494 23.125 8.02003C23.125 3.59069 19.3566 0 14.7081 0C10.0595 0 6.29114 3.59069 6.29114 8.02003C6.29114 12.4494 10.0595 16.0401 14.7081 16.0401ZM14.7079 14.1153C18.2408 14.1153 21.1048 11.3864 21.1048 8.02006C21.1048 4.65376 18.2408 1.92484 14.7079 1.92484C11.175 1.92484 8.31103 4.65376 8.31103 8.02006C8.31103 11.3864 11.175 14.1153 14.7079 14.1153Z" fill="#518BE9" fill-opacity="0.6"/>
<path d="M19.125 8.02003C19.125 10.0603 17.3318 12.0401 14.7081 12.0401V20.0401C21.3815 20.0401 27.125 14.8384 27.125 8.02003H19.125ZM14.7081 4C17.3318 4 19.125 5.97971 19.125 8.02003H27.125C27.125 1.20166 21.3815 -4 14.7081 -4V4ZM10.2911 8.02003C10.2911 5.97971 12.0844 4 14.7081 4V-4C8.03468 -4 2.29114 1.20166 2.29114 8.02003H10.2911ZM14.7081 12.0401C12.0844 12.0401 10.2911 10.0603 10.2911 8.02003H2.29114C2.29114 14.8384 8.03468 20.0401 14.7081 20.0401V12.0401ZM17.1048 8.02006C17.1048 8.99733 16.216 10.1153 14.7079 10.1153V18.1153C20.2657 18.1153 25.1048 13.7754 25.1048 8.02006H17.1048ZM14.7079 5.92484C16.216 5.92484 17.1048 7.04278 17.1048 8.02006H25.1048C25.1048 2.26474 20.2657 -2.07516 14.7079 -2.07516V5.92484ZM12.311 8.02006C12.311 7.04278 13.1999 5.92484 14.7079 5.92484V-2.07516C9.15015 -2.07516 4.31103 2.26474 4.31103 8.02006H12.311ZM14.7079 10.1153C13.1999 10.1153 12.311 8.99733 12.311 8.02006H4.31103C4.31103 13.7754 9.15015 18.1153 14.7079 18.1153V10.1153Z" fill="#BABABA" mask="url(#path-2-inside-1_118_16)"/>
</svg>
