<svg width="23" height="22" viewBox="0 0 23 22" fill="none" xmlns="http://www.w3.org/2000/svg">
<rect x="0.985512" width="7.26005" height="1.36126" rx="0.68063" transform="matrix(0.723971 -0.68983 0.723971 0.68983 0.27206 20.1007)" fill="#518BE9" fill-opacity="0.6" stroke="#518BE9" stroke-width="1.36126"/>
<mask id="path-2-inside-1_120_22" fill="white">
<path fill-rule="evenodd" clip-rule="evenodd" d="M13.8039 16.0401C18.4525 16.0401 22.2209 12.4494 22.2209 8.02003C22.2209 3.59069 18.4525 0 13.8039 0C9.15539 0 5.38699 3.59069 5.38699 8.02003C5.38699 12.4494 9.15539 16.0401 13.8039 16.0401ZM13.8038 14.1153C17.3367 14.1153 20.2006 11.3864 20.2006 8.02006C20.2006 4.65376 17.3367 1.92484 13.8038 1.92484C10.2709 1.92484 7.40688 4.65376 7.40688 8.02006C7.40688 11.3864 10.2709 14.1153 13.8038 14.1153Z"/>
</mask>
<path fill-rule="evenodd" clip-rule="evenodd" d="M13.8039 16.0401C18.4525 16.0401 22.2209 12.4494 22.2209 8.02003C22.2209 3.59069 18.4525 0 13.8039 0C9.15539 0 5.38699 3.59069 5.38699 8.02003C5.38699 12.4494 9.15539 16.0401 13.8039 16.0401ZM13.8038 14.1153C17.3367 14.1153 20.2006 11.3864 20.2006 8.02006C20.2006 4.65376 17.3367 1.92484 13.8038 1.92484C10.2709 1.92484 7.40688 4.65376 7.40688 8.02006C7.40688 11.3864 10.2709 14.1153 13.8038 14.1153Z" fill="#518BE9" fill-opacity="0.6"/>
<path d="M18.2209 8.02003C18.2209 10.0603 16.4276 12.0401 13.8039 12.0401V20.0401C20.4774 20.0401 26.2209 14.8384 26.2209 8.02003H18.2209ZM13.8039 4C16.4276 4 18.2209 5.97971 18.2209 8.02003H26.2209C26.2209 1.20166 20.4774 -4 13.8039 -4V4ZM9.38699 8.02003C9.38699 5.97971 11.1802 4 13.8039 4V-4C7.13054 -4 1.38699 1.20166 1.38699 8.02003H9.38699ZM13.8039 12.0401C11.1802 12.0401 9.38699 10.0603 9.38699 8.02003H1.38699C1.38699 14.8384 7.13054 20.0401 13.8039 20.0401V12.0401ZM16.2006 8.02006C16.2006 8.99733 15.3118 10.1153 13.8038 10.1153V18.1153C19.3615 18.1153 24.2006 13.7754 24.2006 8.02006H16.2006ZM13.8038 5.92484C15.3118 5.92484 16.2006 7.04278 16.2006 8.02006H24.2006C24.2006 2.26474 19.3615 -2.07516 13.8038 -2.07516V5.92484ZM11.4069 8.02006C11.4069 7.04278 12.2957 5.92484 13.8038 5.92484V-2.07516C8.24601 -2.07516 3.40688 2.26474 3.40688 8.02006H11.4069ZM13.8038 10.1153C12.2957 10.1153 11.4069 8.99733 11.4069 8.02006H3.40688C3.40688 13.7754 8.24601 18.1153 13.8038 18.1153V10.1153Z" fill="#518BE9" mask="url(#path-2-inside-1_120_22)"/>
</svg>